<?xml version="1.0" encoding="UTF-8"?>
<svg version="1.1" xmlns="http://www.w3.org/2000/svg" width="700" height="353">
<path d="M0,0 L46,0 L46,1 L47,1 L47,2 L48,2 L48,3 L49,3 L49,4 L51,4 L51,5 L52,5 L52,6 L53,6 L53,7 L54,7 L54,10 L56,10 L56,11 L57,11 L57,15 L58,15 L58,18 L59,18 L59,22 L58,22 L58,26 L57,26 L57,30 L56,30 L56,31 L55,31 L55,32 L54,32 L54,34 L51,34 L51,35 L50,35 L50,36 L49,36 L49,37 L47,37 L47,38 L43,38 L43,39 L26,39 L26,38 L24,38 L24,41 L23,41 L23,74 L11,74 L11,37 L10,37 L10,6 L9,6 L9,5 L0,5 Z " fill="#040101" transform="translate(294,138)"/>
<path d="M0,0 L7,0 L7,3 L6,3 L6,4 L5,4 L5,6 L3,6 L3,7 L2,7 L2,8 L1,8 L1,9 L0,9 L0,10 L-1,10 L-1,12 L-2,12 L-2,15 L-3,15 L-3,16 L-4,16 L-4,17 L-5,17 L-5,18 L-6,18 L-6,19 L-7,19 L-7,20 L-8,20 L-8,22 L-9,22 L-9,23 L-10,23 L-10,25 L-11,25 L-11,26 L-12,26 L-12,27 L-13,27 L-13,28 L-14,28 L-14,29 L-15,29 L-15,34 L-14,34 L-14,35 L-13,35 L-13,37 L-11,37 L-11,39 L-10,39 L-10,41 L-9,41 L-9,42 L-8,42 L-8,46 L-6,46 L-6,47 L-5,47 L-5,49 L-4,49 L-4,50 L-3,50 L-3,54 L-2,54 L-2,56 L-1,56 L-1,57 L0,57 L0,59 L1,59 L1,60 L2,60 L2,61 L3,61 L3,62 L4,62 L4,64 L5,64 L5,68 L6,68 L6,70 L7,70 L7,74 L-7,74 L-7,71 L-8,71 L-8,69 L-9,69 L-9,68 L-10,68 L-10,66 L-11,66 L-11,65 L-13,65 L-13,61 L-14,61 L-14,60 L-15,60 L-15,58 L-17,58 L-17,57 L-18,57 L-18,55 L-19,55 L-19,53 L-20,53 L-20,51 L-21,51 L-21,48 L-23,48 L-23,46 L-24,46 L-24,45 L-25,45 L-25,44 L-27,44 L-27,45 L-28,45 L-28,75 L-41,75 L-41,7 L-42,7 L-42,6 L-51,6 L-51,1 L-28,1 L-28,30 L-27,30 L-27,31 L-24,31 L-24,30 L-23,30 L-23,29 L-22,29 L-22,28 L-21,28 L-21,26 L-19,26 L-19,23 L-18,23 L-18,22 L-17,22 L-17,21 L-15,21 L-15,20 L-14,20 L-14,19 L-13,19 L-13,17 L-12,17 L-12,16 L-11,16 L-11,15 L-10,15 L-10,14 L-9,14 L-9,12 L-8,12 L-8,11 L-7,11 L-7,10 L-6,10 L-6,7 L-5,7 L-5,5 L-4,5 L-4,4 L-2,4 L-2,3 L-1,3 L-1,1 L0,1 Z " fill="#131011" transform="translate(508,137)"/>
<path d="M0,0 L20,0 L20,1 L21,1 L21,3 L25,3 L25,8 L4,8 L4,9 L3,9 L3,10 L2,10 L2,11 L0,11 L0,19 L1,19 L1,21 L3,21 L3,23 L4,23 L4,24 L5,24 L5,25 L6,25 L6,26 L7,26 L7,28 L8,28 L8,29 L10,29 L10,30 L12,30 L12,31 L13,31 L13,33 L14,33 L14,34 L15,34 L15,35 L17,35 L17,36 L18,36 L18,37 L22,37 L22,38 L23,38 L23,39 L24,39 L24,41 L25,41 L25,42 L27,42 L27,43 L28,43 L28,45 L29,45 L29,46 L30,46 L30,48 L31,48 L31,49 L32,49 L32,51 L33,51 L33,54 L34,54 L34,63 L33,63 L33,64 L32,64 L32,66 L31,66 L31,68 L30,68 L30,69 L28,69 L28,71 L26,71 L26,73 L25,73 L25,74 L21,74 L21,75 L20,75 L20,76 L-3,76 L-3,75 L-6,75 L-6,74 L-7,74 L-7,73 L-8,73 L-8,70 L7,70 L7,69 L11,69 L11,68 L13,68 L13,67 L15,67 L15,66 L16,66 L16,65 L18,65 L18,63 L19,63 L19,57 L18,57 L18,55 L16,55 L16,54 L15,54 L15,52 L14,52 L14,51 L13,51 L13,50 L11,50 L11,49 L10,49 L10,48 L9,48 L9,47 L8,47 L8,45 L6,45 L6,44 L5,44 L5,43 L4,43 L4,42 L2,42 L2,41 L1,41 L1,40 L-1,40 L-1,39 L-2,39 L-2,38 L-3,38 L-3,37 L-5,37 L-5,36 L-6,36 L-6,35 L-8,35 L-8,33 L-9,33 L-9,32 L-10,32 L-10,29 L-11,29 L-11,28 L-12,28 L-12,27 L-13,27 L-13,23 L-14,23 L-14,14 L-13,14 L-13,11 L-12,11 L-12,10 L-11,10 L-11,8 L-10,8 L-10,7 L-8,7 L-8,6 L-7,6 L-7,5 L-6,5 L-6,3 L-5,3 L-5,2 L-3,2 L-3,1 L0,1 Z " fill="#020101" transform="translate(161,137)"/>
<path d="M0,0 L1,0 L1,1 L48,1 L48,2 L49,2 L49,14 L48,14 L48,15 L45,15 L45,13 L44,13 L44,8 L43,8 L43,6 L24,6 L24,7 L23,7 L23,32 L26,32 L26,33 L31,33 L31,32 L35,32 L35,33 L39,33 L39,32 L40,32 L40,33 L42,33 L42,38 L24,38 L24,40 L23,40 L23,70 L24,70 L24,71 L46,71 L46,75 L11,75 L11,74 L10,74 L10,29 L9,29 L9,8 L8,8 L8,6 L-1,6 L-1,1 L0,1 Z " fill="#020001" transform="translate(219,137)"/>
<path d="M0,0 L3,0 L3,1 L4,1 L4,3 L5,3 L5,4 L6,4 L6,5 L7,5 L7,11 L9,11 L9,13 L10,13 L10,16 L11,16 L11,20 L12,20 L12,25 L13,25 L13,26 L14,26 L14,27 L15,27 L15,34 L16,34 L16,36 L17,36 L17,39 L19,39 L19,41 L20,41 L20,47 L21,47 L21,48 L22,48 L22,50 L23,50 L23,53 L24,53 L24,54 L25,54 L25,59 L26,59 L26,60 L27,60 L27,66 L28,66 L28,71 L17,71 L17,68 L16,68 L16,67 L15,67 L15,63 L13,63 L13,60 L12,60 L12,56 L11,56 L11,55 L10,55 L10,52 L9,52 L9,49 L-7,49 L-7,50 L-14,50 L-14,51 L-15,51 L-15,55 L-16,55 L-16,58 L-17,58 L-17,60 L-18,60 L-18,66 L-19,66 L-19,67 L-20,67 L-20,70 L-21,70 L-21,71 L-22,71 L-22,72 L-28,72 L-28,67 L-27,67 L-27,65 L-26,65 L-26,63 L-25,63 L-25,57 L-24,57 L-24,52 L-22,52 L-22,50 L-21,50 L-21,46 L-20,46 L-20,45 L-19,45 L-19,43 L-18,43 L-18,39 L-17,39 L-17,37 L-16,37 L-16,36 L-15,36 L-15,32 L-12,32 L-12,39 L-13,39 L-13,44 L6,44 L6,41 L5,41 L5,39 L4,39 L4,31 L3,31 L3,26 L4,26 L4,23 L2,23 L2,22 L1,22 L1,19 L0,19 L0,17 L-1,17 L-1,15 L-4,15 L-4,14 L-5,14 L-5,13 L-3,13 L-3,11 L-2,11 L-2,3 L-1,3 L-1,2 L0,2 Z " fill="#060203" transform="translate(402,140)"/>
<path d="M0,0 L16,0 L16,1 L18,1 L18,2 L19,2 L19,5 L20,5 L20,8 L21,8 L21,11 L22,11 L22,14 L23,14 L23,16 L24,16 L24,19 L25,19 L25,22 L27,22 L27,29 L28,29 L28,30 L29,30 L29,35 L30,35 L30,37 L31,37 L31,41 L32,41 L32,44 L33,44 L33,45 L34,45 L34,49 L35,49 L35,51 L36,51 L36,55 L37,55 L37,57 L38,57 L38,59 L39,59 L39,63 L40,63 L40,65 L41,65 L41,72 L29,72 L29,69 L28,69 L28,65 L27,65 L27,64 L26,64 L26,59 L25,59 L25,58 L24,58 L24,51 L23,51 L23,46 L22,46 L22,45 L24,45 L24,43 L25,43 L25,42 L24,42 L24,39 L23,39 L23,38 L22,38 L22,36 L23,36 L23,35 L22,35 L22,32 L21,32 L21,33 L17,33 L17,29 L16,29 L16,27 L15,27 L15,24 L14,24 L14,21 L13,21 L13,19 L12,19 L12,17 L9,17 L9,22 L8,22 L8,24 L7,24 L7,27 L6,27 L6,29 L5,29 L5,31 L4,31 L4,36 L3,36 L3,38 L2,38 L2,40 L1,40 L1,45 L2,45 L2,46 L7,46 L7,47 L12,47 L12,48 L9,48 L9,49 L-1,49 L-1,47 L-3,47 L-3,50 L-4,50 L-4,48 L-5,48 L-5,44 L-4,44 L-4,40 L-3,40 L-3,36 L-2,36 L-2,34 L-1,34 L-1,32 L0,32 L0,30 L1,30 L1,27 L2,27 L2,22 L3,22 L3,20 L4,20 L4,18 L5,18 L5,15 L6,15 L6,14 L7,14 L7,10 L8,10 L8,7 L9,7 L9,4 L6,4 L6,3 L0,3 Z " fill="#050100" transform="translate(554,138)"/>
<path d="M0,0 L3,0 L3,2 L4,2 L4,4 L5,4 L5,7 L6,7 L6,10 L7,10 L7,12 L8,12 L8,16 L12,16 L12,15 L13,15 L13,18 L14,18 L14,19 L13,19 L13,21 L14,21 L14,22 L15,22 L15,25 L16,25 L16,26 L15,26 L15,28 L13,28 L13,29 L14,29 L14,33 L-8,33 L-8,34 L-10,34 L-10,36 L-11,36 L-11,40 L-12,40 L-12,45 L-13,45 L-13,48 L-14,48 L-14,50 L-16,50 L-16,53 L-17,53 L-17,54 L-18,54 L-18,55 L-22,55 L-22,48 L-21,48 L-21,46 L-20,46 L-20,42 L-19,42 L-19,40 L-18,40 L-18,37 L-17,37 L-17,34 L-16,34 L-16,32 L-15,32 L-15,28 L-14,28 L-14,31 L-13,31 L-13,33 L-12,33 L-12,30 L-10,30 L-10,32 L0,32 L0,31 L3,31 L3,30 L-2,30 L-2,29 L-7,29 L-7,28 L-8,28 L-8,23 L-7,23 L-7,21 L-6,21 L-6,19 L-5,19 L-5,14 L-4,14 L-4,12 L-3,12 L-3,10 L-2,10 L-2,7 L-1,7 L-1,5 L0,5 Z " fill="#625153" transform="translate(563,155)"/>
<path d="M0,0 L2,0 L2,2 L3,2 L3,4 L2,4 L2,3 L-1,3 L-1,5 L-2,5 L-2,6 L-3,6 L-3,14 L-4,14 L-4,16 L-6,16 L-6,17 L-5,17 L-5,18 L-2,18 L-2,20 L-1,20 L-1,22 L0,22 L0,25 L1,25 L1,26 L3,26 L3,29 L2,29 L2,34 L3,34 L3,42 L4,42 L4,44 L5,44 L5,47 L-14,47 L-14,42 L-13,42 L-13,35 L-16,35 L-16,39 L-17,39 L-17,40 L-18,40 L-18,38 L-17,38 L-17,32 L-15,32 L-15,27 L-14,27 L-14,25 L-13,25 L-13,24 L-12,24 L-12,21 L-11,21 L-11,19 L-10,19 L-10,11 L-9,11 L-9,10 L-8,10 L-8,7 L-10,7 L-10,6 L-17,6 L-17,1 L0,1 Z " fill="#0B0302" transform="translate(403,137)"/>
<path d="M0,0 L9,0 L9,2 L11,2 L11,3 L14,3 L14,4 L15,4 L15,5 L18,5 L18,8 L19,8 L19,10 L20,10 L20,20 L19,20 L19,22 L18,22 L18,23 L17,23 L17,24 L16,24 L16,27 L14,27 L14,29 L11,29 L11,31 L0,31 L0,30 L-1,30 L-1,1 L0,1 Z " fill="#F5F3F3" transform="translate(318,143)"/>
<path d="M0,0 L46,0 L46,1 L47,1 L47,2 L48,2 L48,3 L49,3 L49,4 L51,4 L51,5 L52,5 L52,6 L53,6 L53,7 L54,7 L54,10 L56,10 L56,11 L57,11 L57,15 L58,15 L58,18 L59,18 L59,22 L58,22 L58,26 L57,26 L57,30 L56,30 L56,31 L55,31 L55,32 L54,32 L54,34 L53,34 L53,31 L54,31 L54,30 L55,30 L55,29 L56,29 L56,28 L52,28 L52,27 L53,27 L53,26 L54,26 L54,21 L50,21 L50,22 L49,22 L49,23 L48,23 L48,27 L50,27 L50,28 L45,28 L45,27 L46,27 L46,26 L44,26 L44,29 L42,29 L42,33 L41,33 L41,35 L38,35 L38,32 L40,32 L40,29 L41,29 L41,28 L42,28 L42,27 L43,27 L43,25 L44,25 L44,15 L43,15 L43,13 L42,13 L42,10 L39,10 L39,9 L38,9 L38,8 L35,8 L35,7 L33,7 L33,5 L24,5 L24,6 L23,6 L23,4 L32,4 L32,2 L7,2 L7,4 L10,4 L10,6 L9,6 L9,5 L0,5 Z " fill="#050202" transform="translate(294,138)"/>
<path d="M0,0 L16,0 L16,1 L18,1 L18,6 L19,6 L19,9 L18,9 L18,13 L19,13 L19,16 L20,16 L20,18 L23,18 L23,19 L21,19 L21,20 L22,20 L22,21 L23,21 L23,23 L21,23 L21,27 L18,27 L18,26 L16,26 L16,23 L15,23 L15,20 L13,20 L13,19 L12,19 L12,17 L9,17 L9,22 L8,22 L8,24 L7,24 L7,27 L6,27 L6,29 L5,29 L5,31 L4,31 L4,36 L3,36 L3,38 L2,38 L2,40 L1,40 L1,45 L2,45 L2,46 L7,46 L7,47 L12,47 L12,48 L9,48 L9,49 L-1,49 L-1,47 L-3,47 L-3,50 L-4,50 L-4,48 L-5,48 L-5,44 L-4,44 L-4,40 L-3,40 L-3,36 L-2,36 L-2,34 L-1,34 L-1,32 L0,32 L0,30 L1,30 L1,27 L2,27 L2,22 L3,22 L3,20 L4,20 L4,18 L5,18 L5,15 L6,15 L6,14 L7,14 L7,10 L8,10 L8,7 L9,7 L9,4 L6,4 L6,3 L0,3 Z " fill="#030202" transform="translate(554,138)"/>
<path d="M0,0 L25,0 L25,2 L16,2 L16,33 L17,33 L17,34 L28,34 L28,32 L31,32 L31,33 L34,33 L34,31 L35,31 L35,27 L37,27 L37,24 L39,24 L39,25 L38,25 L38,26 L43,26 L43,25 L41,25 L41,21 L42,21 L42,20 L43,20 L43,19 L47,19 L47,24 L46,24 L46,25 L45,25 L45,26 L49,26 L49,27 L48,27 L48,28 L47,28 L47,29 L46,29 L46,32 L44,32 L44,33 L43,33 L43,34 L42,34 L42,35 L40,35 L40,36 L36,36 L36,37 L19,37 L19,36 L17,36 L17,39 L16,39 L16,72 L15,72 L15,70 L13,70 L13,69 L15,69 L15,67 L14,67 L14,66 L15,66 L15,49 L14,49 L14,41 L13,41 L13,27 L14,27 L14,26 L13,26 L13,9 L14,9 L14,8 L13,8 L13,4 L14,4 L14,6 L15,6 L15,3 L14,3 L14,1 L12,1 L12,3 L11,3 L11,1 L5,1 L5,3 L4,3 L4,35 L3,35 L3,2 L0,2 Z " fill="#0F0509" transform="translate(301,140)"/>
<path d="M0,0 L2,0 L2,13 L3,13 L3,67 L5,67 L5,68 L11,68 L11,67 L13,67 L13,66 L11,66 L11,65 L14,65 L14,42 L13,42 L13,39 L12,39 L12,38 L13,38 L13,37 L12,37 L12,35 L13,35 L13,33 L12,33 L12,31 L11,31 L11,30 L12,30 L12,26 L11,26 L11,23 L12,23 L12,22 L13,22 L13,1 L14,1 L14,0 L16,0 L16,1 L15,1 L15,26 L18,26 L18,27 L23,27 L23,26 L27,26 L27,27 L31,27 L31,26 L32,26 L32,27 L34,27 L34,32 L16,32 L16,34 L15,34 L15,64 L16,64 L16,65 L38,65 L38,69 L3,69 L3,68 L2,68 L2,23 L1,23 L1,2 L0,2 Z " fill="#282121" transform="translate(227,143)"/>
<path d="M0,0 L3,0 L3,7 L2,7 L2,12 L21,12 L21,9 L20,9 L20,7 L19,7 L19,3 L20,3 L20,5 L21,5 L21,7 L22,7 L22,16 L24,16 L24,17 L8,17 L8,18 L1,18 L1,19 L0,19 L0,23 L-1,23 L-1,26 L-2,26 L-2,28 L-3,28 L-3,34 L-4,34 L-4,35 L-5,35 L-5,38 L-6,38 L-6,39 L-7,39 L-7,40 L-13,40 L-13,35 L-12,35 L-12,33 L-11,33 L-11,31 L-10,31 L-10,25 L-9,25 L-9,20 L-7,20 L-7,18 L-6,18 L-6,14 L-5,14 L-5,13 L-4,13 L-4,11 L-3,11 L-3,7 L-2,7 L-2,5 L-1,5 L-1,4 L0,4 Z " fill="#352526" transform="translate(387,172)"/>
<path d="M0,0 L20,0 L20,1 L21,1 L21,3 L25,3 L25,8 L4,8 L4,9 L3,9 L3,10 L2,10 L2,11 L0,11 L0,19 L1,19 L1,21 L3,21 L3,23 L4,23 L4,24 L5,24 L5,25 L6,25 L6,26 L7,26 L7,28 L8,28 L8,29 L10,29 L10,30 L12,30 L12,31 L13,31 L13,33 L14,33 L14,34 L15,34 L15,35 L17,35 L17,36 L15,36 L15,37 L14,37 L14,36 L13,36 L13,35 L11,35 L11,36 L10,36 L10,34 L9,34 L9,32 L8,32 L8,30 L7,30 L7,31 L6,31 L6,27 L4,27 L4,28 L2,28 L2,27 L1,27 L1,28 L-1,28 L-1,25 L-2,25 L-2,23 L0,23 L0,20 L-1,20 L-1,11 L-2,11 L-2,12 L-3,12 L-3,11 L-5,11 L-5,10 L-3,10 L-3,9 L-1,9 L-1,7 L-3,7 L-3,8 L-4,8 L-4,6 L-7,6 L-7,5 L-6,5 L-6,3 L-5,3 L-5,2 L-3,2 L-3,1 L0,1 Z M5,31 L6,31 L6,32 L5,32 Z " fill="#171211" transform="translate(161,137)"/>
<path d="M0,0 L1,0 L1,2 L2,2 L2,6 L3,6 L3,9 L4,9 L4,10 L5,10 L5,14 L6,14 L6,16 L7,16 L7,20 L8,20 L8,22 L9,22 L9,24 L10,24 L10,28 L11,28 L11,30 L12,30 L12,37 L0,37 L0,34 L-1,34 L-1,30 L-2,30 L-2,29 L-3,29 L-3,24 L-4,24 L-4,23 L-5,23 L-5,16 L-6,16 L-6,15 L-4,15 L-4,17 L-1,17 L-1,19 L0,19 L0,22 L2,22 L2,20 L1,20 L1,19 L3,19 L3,16 L4,16 L4,19 L6,19 L6,18 L5,18 L5,15 L3,15 L3,12 L2,12 L2,14 L1,14 L1,11 L2,11 L2,7 L1,7 L1,6 L0,6 L0,5 L-1,5 L-1,3 L0,3 Z " fill="#0A0606" transform="translate(583,173)"/>
<path d="M0,0 L1,0 L1,1 L5,1 L5,2 L6,2 L6,3 L7,3 L7,5 L8,5 L8,6 L10,6 L10,7 L11,7 L11,9 L12,9 L12,10 L13,10 L13,12 L14,12 L14,13 L15,13 L15,15 L16,15 L16,18 L17,18 L17,27 L16,27 L16,28 L15,28 L15,30 L14,30 L14,32 L13,32 L13,33 L11,33 L11,32 L12,32 L12,27 L14,27 L14,23 L15,23 L15,19 L14,19 L14,18 L13,18 L13,15 L11,15 L11,16 L10,16 L10,15 L9,15 L9,17 L8,17 L8,18 L6,18 L6,20 L5,20 L5,30 L4,30 L4,31 L2,31 L2,32 L-4,32 L-4,31 L-2,31 L-2,30 L-1,30 L-1,29 L1,29 L1,27 L2,27 L2,21 L1,21 L1,19 L-1,19 L-1,18 L-2,18 L-2,16 L-3,16 L-3,15 L-4,15 L-4,14 L-2,14 L-2,15 L0,15 L0,18 L2,18 L2,17 L3,17 L3,16 L2,16 L2,15 L1,15 L1,13 L2,13 L2,12 L0,12 L0,10 L1,10 L1,9 L-1,9 L-1,8 L0,8 L0,7 L3,7 L3,6 L0,6 L0,4 L-1,4 L-1,1 L0,1 Z " fill="#040203" transform="translate(178,173)"/>
<path d="M0,0 L3,0 L3,1 L4,1 L4,2 L5,2 L5,5 L6,5 L6,11 L7,11 L7,13 L8,13 L8,14 L9,14 L9,20 L10,20 L10,22 L11,22 L11,25 L-7,25 L-7,23 L-6,23 L-6,19 L-5,19 L-5,16 L-4,16 L-4,14 L-3,14 L-3,8 L-2,8 L-2,7 L-1,7 L-1,3 L0,3 Z " fill="#FBFAFA" transform="translate(397,159)"/>
<path d="M0,0 L1,0 L1,2 L2,2 L2,4 L3,4 L3,6 L4,6 L4,10 L5,10 L5,12 L6,12 L6,15 L7,15 L7,18 L8,18 L8,20 L9,20 L9,25 L7,25 L7,26 L-7,26 L-7,25 L-8,25 L-8,23 L-7,23 L-7,21 L-6,21 L-6,12 L-5,12 L-5,10 L-4,10 L-4,8 L-3,8 L-3,5 L-2,5 L-2,3 L-1,3 L-1,2 L0,2 Z " fill="#F9F8F9" transform="translate(564,157)"/>
<path d="M0,0 L1,0 L1,1 L48,1 L48,2 L49,2 L49,14 L48,14 L48,15 L45,15 L45,13 L44,13 L44,8 L43,8 L43,6 L24,6 L24,5 L39,5 L39,4 L33,4 L33,3 L8,3 L8,4 L5,4 L5,5 L8,5 L8,6 L-1,6 L-1,1 L0,1 Z " fill="#4F3433" transform="translate(219,137)"/>
<path d="M0,0 L7,0 L7,3 L6,3 L6,4 L5,4 L5,6 L3,6 L3,7 L2,7 L2,8 L1,8 L1,9 L0,9 L0,10 L-1,10 L-1,12 L-2,12 L-2,15 L-3,15 L-3,16 L-4,16 L-4,17 L-5,17 L-5,18 L-6,18 L-6,19 L-7,19 L-7,20 L-8,20 L-8,22 L-9,22 L-9,23 L-10,23 L-10,25 L-11,25 L-11,26 L-12,26 L-12,27 L-13,27 L-13,28 L-14,28 L-14,29 L-15,29 L-15,33 L-16,33 L-16,28 L-15,28 L-15,26 L-18,26 L-18,27 L-20,27 L-20,28 L-21,28 L-21,26 L-19,26 L-19,23 L-18,23 L-18,22 L-17,22 L-17,21 L-15,21 L-15,20 L-14,20 L-14,19 L-13,19 L-13,17 L-12,17 L-12,16 L-11,16 L-11,15 L-10,15 L-10,14 L-9,14 L-9,12 L-8,12 L-8,11 L-7,11 L-7,10 L-6,10 L-6,7 L-5,7 L-5,5 L-4,5 L-4,4 L-2,4 L-2,3 L-1,3 L-1,1 L0,1 Z " fill="#110C17" transform="translate(508,137)"/>
<path d="M0,0 L1,0 L1,1 L3,1 L3,0 L4,0 L4,1 L6,1 L6,0 L8,0 L8,4 L9,4 L9,3 L10,3 L10,5 L11,5 L11,7 L12,7 L12,9 L13,9 L13,8 L15,8 L15,9 L16,9 L16,10 L17,10 L17,9 L19,9 L19,10 L18,10 L18,13 L19,13 L19,15 L22,15 L22,16 L19,16 L19,17 L18,17 L18,18 L20,18 L20,19 L19,19 L19,21 L21,21 L21,22 L20,22 L20,24 L21,24 L21,25 L22,25 L22,26 L21,26 L21,27 L19,27 L19,24 L17,24 L17,23 L15,23 L15,22 L14,22 L14,19 L13,19 L13,17 L12,17 L12,14 L11,14 L11,13 L7,13 L7,11 L6,11 L6,10 L4,10 L4,9 L2,9 L2,8 L1,8 L1,5 L-2,5 L-2,2 L-1,2 L-1,1 L0,1 Z M7,4 L7,5 L8,5 L8,4 Z " fill="#030102" transform="translate(159,164)"/>
<path d="M0,0 L2,0 L2,13 L3,13 L3,67 L5,67 L5,68 L11,68 L11,67 L13,67 L13,66 L11,66 L11,65 L14,65 L14,61 L15,61 L15,64 L16,64 L16,65 L38,65 L38,69 L3,69 L3,68 L2,68 L2,23 L1,23 L1,2 L0,2 Z " fill="#2D2027" transform="translate(227,143)"/>
<path d="M0,0 L1,0 L1,2 L2,2 L2,8 L3,8 L3,9 L4,9 L4,11 L5,11 L5,14 L6,14 L6,15 L7,15 L7,20 L8,20 L8,21 L9,21 L9,27 L10,27 L10,32 L-1,32 L-1,29 L-2,29 L-2,28 L-3,28 L-3,24 L-5,24 L-5,21 L-6,21 L-6,17 L-7,17 L-7,16 L-8,16 L-8,13 L-9,13 L-9,11 L-8,11 L-8,12 L-7,12 L-7,14 L-4,14 L-4,15 L-3,15 L-3,18 L-1,18 L-1,21 L-3,21 L-3,22 L-2,22 L-2,27 L0,27 L0,26 L1,26 L1,27 L2,27 L2,29 L1,29 L1,31 L3,31 L3,24 L2,24 L2,23 L1,23 L1,20 L3,20 L3,18 L2,18 L2,16 L3,16 L3,10 L0,10 L0,9 L1,9 L1,4 L0,4 Z " fill="#31292B" transform="translate(420,179)"/>
<path d="M0,0 L3,0 L3,1 L4,1 L4,3 L5,3 L5,4 L6,4 L6,5 L7,5 L7,11 L9,11 L9,13 L10,13 L10,16 L11,16 L11,20 L12,20 L12,25 L10,25 L10,19 L9,19 L9,18 L8,18 L8,17 L6,17 L6,20 L5,20 L5,21 L4,21 L4,19 L2,19 L2,21 L3,21 L3,22 L4,22 L4,23 L2,23 L2,22 L1,22 L1,19 L0,19 L0,17 L-1,17 L-1,15 L-4,15 L-4,14 L-5,14 L-5,13 L-3,13 L-3,11 L-2,11 L-2,3 L-1,3 L-1,2 L0,2 Z " fill="#030102" transform="translate(402,140)"/>
<path d="M0,0 L1,0 L1,2 L3,2 L3,3 L4,3 L4,7 L3,7 L3,9 L2,9 L2,12 L1,12 L1,14 L0,14 L0,16 L-1,16 L-1,21 L-2,21 L-2,23 L-3,23 L-3,25 L-4,25 L-4,30 L-3,30 L-3,31 L2,31 L2,32 L7,32 L7,33 L4,33 L4,34 L-6,34 L-6,32 L-8,32 L-8,35 L-9,35 L-9,33 L-10,33 L-10,29 L-9,29 L-9,25 L-8,25 L-8,21 L-7,21 L-7,19 L-6,19 L-6,17 L-5,17 L-5,15 L-4,15 L-4,12 L-3,12 L-3,7 L-2,7 L-2,5 L-1,5 L-1,3 L0,3 Z " fill="#0E0808" transform="translate(559,153)"/>
<path d="M0,0 L1,0 L1,1 L2,1 L2,2 L3,2 L3,1 L4,1 L4,0 L27,0 L27,1 L11,1 L11,2 L4,2 L4,3 L3,3 L3,7 L2,7 L2,10 L1,10 L1,12 L0,12 L0,18 L-1,18 L-1,19 L-2,19 L-2,22 L-3,22 L-3,23 L-4,23 L-4,24 L-10,24 L-10,19 L-9,19 L-9,17 L-8,17 L-8,15 L-7,15 L-7,11 L-5,11 L-5,6 L-3,6 L-3,3 L-2,3 L-2,2 L0,2 Z " fill="#2E2A2A" transform="translate(384,188)"/>
<path d="M0,0 L1,0 L1,2 L0,2 L0,4 L3,4 L3,5 L2,5 L2,8 L4,8 L4,9 L6,9 L6,13 L7,13 L7,15 L6,15 L6,17 L5,17 L5,18 L7,18 L7,19 L4,19 L4,20 L5,20 L5,21 L7,21 L7,22 L4,22 L4,21 L3,21 L3,23 L5,23 L5,24 L6,24 L6,23 L8,23 L8,24 L7,24 L7,25 L8,25 L8,28 L7,28 L7,30 L5,30 L5,29 L4,29 L4,27 L3,27 L3,25 L2,25 L2,23 L1,23 L1,20 L-1,20 L-1,16 L-2,16 L-2,15 L-6,15 L-6,13 L-5,13 L-5,12 L-4,12 L-4,11 L-2,11 L-2,13 L-1,13 L-1,10 L0,10 L0,8 L-1,8 L-1,7 L-2,7 L-2,6 L-4,6 L-4,5 L-6,5 L-6,2 L-5,2 L-5,3 L-2,3 L-2,2 L-1,2 L-1,1 L0,1 Z " fill="#131212" transform="translate(486,165)"/>
<path d="M0,0 L46,0 L46,1 L47,1 L47,2 L34,2 L34,5 L37,5 L37,6 L39,6 L39,7 L41,7 L41,10 L39,10 L39,9 L38,9 L38,8 L35,8 L35,7 L33,7 L33,5 L24,5 L24,6 L23,6 L23,4 L32,4 L32,2 L7,2 L7,4 L10,4 L10,6 L9,6 L9,5 L0,5 Z " fill="#5E4C53" transform="translate(294,138)"/>
<path d="M0,0 L4,0 L4,5 L3,5 L3,6 L2,6 L2,7 L6,7 L6,8 L5,8 L5,9 L4,9 L4,10 L3,10 L3,13 L1,13 L1,14 L0,14 L0,15 L-1,15 L-1,16 L-3,16 L-3,17 L-12,17 L-12,16 L-14,16 L-14,15 L-13,15 L-13,13 L-12,13 L-12,14 L-9,14 L-9,12 L-8,12 L-8,8 L-6,8 L-6,5 L-4,5 L-4,6 L-5,6 L-5,7 L0,7 L0,6 L-2,6 L-2,2 L-1,2 L-1,1 L0,1 Z " fill="#060101" transform="translate(344,159)"/>
<path d="M0,0 L2,0 L2,1 L3,1 L3,2 L4,2 L4,8 L3,8 L3,10 L4,10 L4,11 L5,11 L5,12 L6,12 L6,16 L5,16 L5,19 L6,19 L6,17 L7,17 L7,20 L9,20 L9,23 L10,23 L10,24 L8,24 L8,21 L7,21 L7,24 L5,24 L5,25 L6,25 L6,27 L4,27 L4,24 L3,24 L3,22 L0,22 L0,20 L-2,20 L-2,16 L-3,16 L-3,15 L-1,15 L-1,13 L0,13 L0,12 L-1,12 L-1,9 L-2,9 L-2,8 L-3,8 L-3,6 L-1,6 L-1,7 L0,7 Z " fill="#030103" transform="translate(579,168)"/>
<path d="M0,0 L20,0 L20,1 L21,1 L21,27 L20,27 L20,26 L18,26 L18,24 L14,24 L14,22 L13,22 L13,18 L18,18 L18,3 L19,3 L19,1 L10,1 L10,2 L11,2 L11,6 L10,6 L10,4 L9,4 L9,3 L0,3 Z " fill="#030004" transform="translate(458,139)"/>
<path d="M0,0 L1,0 L1,1 L2,1 L2,2 L3,2 L3,9 L4,9 L4,11 L5,11 L5,14 L6,14 L6,18 L7,18 L7,23 L6,23 L6,24 L5,24 L5,25 L6,25 L6,28 L5,28 L5,26 L4,26 L4,20 L3,20 L3,14 L2,14 L2,19 L1,19 L1,14 L0,14 L0,16 L-2,16 L-2,17 L-3,17 L-3,15 L-4,15 L-4,12 L-3,12 L-3,4 L-1,4 L-1,3 L0,3 Z " fill="#080306" transform="translate(414,165)"/>
<path d="M0,0 L2,0 L2,1 L1,1 L1,2 L-3,2 L-3,3 L-2,3 L-2,4 L-4,4 L-4,5 L-2,5 L-2,6 L0,6 L0,7 L8,7 L8,5 L11,5 L11,4 L13,4 L13,3 L15,3 L15,5 L14,5 L14,6 L10,6 L10,7 L9,7 L9,8 L-14,8 L-14,7 L-17,7 L-17,6 L-18,6 L-18,5 L-19,5 L-19,2 L-4,2 L-4,1 L0,1 Z " fill="#08060E" transform="translate(172,205)"/>
<path d="M0,0 L2,0 L2,2 L3,2 L3,5 L2,5 L2,10 L1,10 L1,12 L0,12 L0,16 L-1,16 L-1,19 L-2,19 L-2,20 L-3,20 L-3,21 L-7,21 L-7,14 L-6,14 L-6,12 L-5,12 L-5,8 L-4,8 L-4,6 L-3,6 L-3,3 L-2,3 L-2,2 L0,2 Z " fill="#040305" transform="translate(548,189)"/>
<path d="M0,0 L15,0 L15,1 L18,1 L18,2 L19,2 L19,4 L22,4 L22,5 L11,5 L11,6 L7,6 L7,7 L3,7 L3,6 L0,6 L0,7 L-1,7 L-1,5 L-3,5 L-3,3 L-2,3 L-2,4 L-1,4 L-1,1 L0,1 Z " fill="#0C0403" transform="translate(162,138)"/>
<path d="M0,0 L2,0 L2,1 L1,1 L1,26 L4,26 L4,27 L9,27 L9,26 L13,26 L13,27 L17,27 L17,26 L18,26 L18,27 L20,27 L20,32 L2,32 L2,31 L19,31 L19,28 L0,28 L0,27 L-1,27 L-1,28 L-2,28 L-2,26 L-3,26 L-3,23 L-2,23 L-2,22 L-1,22 L-1,1 L0,1 Z " fill="#696262" transform="translate(241,143)"/>
<path d="M0,0 L2,0 L2,3 L3,3 L3,4 L5,4 L5,3 L6,3 L6,1 L7,1 L7,4 L10,4 L10,7 L11,7 L11,8 L13,8 L13,9 L15,9 L15,10 L16,10 L16,12 L20,12 L20,13 L21,13 L21,16 L22,16 L22,18 L23,18 L23,21 L24,21 L24,22 L22,22 L22,21 L21,21 L21,20 L20,20 L20,19 L19,19 L19,17 L17,17 L17,16 L16,16 L16,15 L15,15 L15,14 L13,14 L13,13 L12,13 L12,12 L10,12 L10,11 L9,11 L9,10 L8,10 L8,9 L6,9 L6,8 L5,8 L5,7 L3,7 L3,5 L2,5 L2,4 L1,4 L1,1 L0,1 Z " fill="#070102" transform="translate(150,165)"/>
<path d="M0,0 L25,0 L25,2 L16,2 L16,30 L15,30 L15,3 L14,3 L14,1 L12,1 L12,3 L11,3 L11,1 L5,1 L5,3 L4,3 L4,35 L3,35 L3,2 L0,2 Z " fill="#2F2125" transform="translate(301,140)"/>
<path d="M0,0 L1,0 L1,2 L2,2 L2,1 L3,1 L3,2 L4,2 L4,3 L5,3 L5,5 L6,5 L6,6 L7,6 L7,9 L9,9 L9,14 L4,14 L4,13 L-1,13 L-1,12 L2,12 L2,11 L-3,11 L-3,10 L-1,10 L-1,7 L-2,7 L-2,1 L-1,1 L-1,2 L0,2 Z " fill="#030001" transform="translate(505,196)"/>
<path d="M0,0 L11,0 L11,1 L12,1 L12,2 L13,2 L13,5 L14,5 L14,7 L15,7 L15,6 L16,6 L16,8 L15,8 L15,12 L16,12 L16,9 L17,9 L17,8 L18,8 L18,12 L17,12 L17,13 L16,13 L16,14 L18,14 L18,13 L19,13 L19,14 L20,14 L20,15 L21,15 L21,17 L19,17 L19,16 L18,16 L18,17 L15,17 L15,16 L14,16 L14,15 L15,15 L15,13 L14,13 L14,14 L13,14 L13,11 L14,11 L14,9 L13,9 L13,6 L9,6 L9,5 L8,5 L8,4 L7,4 L7,5 L5,5 L5,4 L3,4 L3,3 L0,3 Z " fill="#030102" transform="translate(328,140)"/>
<path d="M0,0 L3,0 L3,1 L4,1 L4,3 L3,3 L3,2 L0,2 L0,5 L-1,5 L-1,9 L-2,9 L-2,10 L-3,10 L-3,16 L-4,16 L-4,18 L-5,18 L-5,21 L-6,21 L-6,25 L-7,25 L-7,27 L-8,27 L-8,22 L-7,22 L-7,15 L-10,15 L-10,19 L-11,19 L-11,20 L-12,20 L-12,18 L-11,18 L-11,12 L-9,12 L-9,7 L-8,7 L-8,5 L-7,5 L-7,4 L-6,4 L-6,7 L-7,7 L-7,8 L-6,8 L-6,12 L-4,12 L-4,9 L-3,9 L-3,7 L-2,7 L-2,4 L-1,4 L-1,1 L0,1 Z " fill="#6B5F60" transform="translate(397,157)"/>
<path d="M0,0 L1,0 L1,1 L48,1 L48,2 L49,2 L49,14 L48,14 L48,15 L45,15 L45,13 L44,13 L44,8 L43,8 L43,6 L45,6 L45,12 L47,12 L47,2 L0,2 L0,5 L1,5 L1,6 L-1,6 L-1,1 L0,1 Z " fill="#9C8482" transform="translate(219,137)"/>
<path d="M0,0 L1,0 L1,2 L3,2 L3,4 L4,4 L4,6 L5,6 L5,7 L6,7 L6,11 L8,11 L8,12 L9,12 L9,14 L10,14 L10,15 L11,15 L11,19 L12,19 L12,21 L13,21 L13,22 L14,22 L14,24 L15,24 L15,25 L16,25 L16,26 L17,26 L17,27 L18,27 L18,29 L19,29 L19,33 L18,33 L18,30 L17,30 L17,29 L16,29 L16,27 L15,27 L15,26 L14,26 L14,25 L13,25 L13,26 L12,26 L12,24 L13,24 L13,23 L12,23 L12,22 L11,22 L11,23 L10,23 L10,22 L9,22 L9,20 L10,20 L10,18 L9,18 L9,17 L7,17 L7,16 L5,16 L5,14 L3,14 L3,13 L2,13 L2,11 L3,11 L3,6 L2,6 L2,4 L0,4 Z " fill="#2A262D" transform="translate(494,172)"/>
<path d="M0,0 L1,0 L1,2 L3,2 L3,3 L4,3 L4,7 L3,7 L3,9 L2,9 L2,12 L1,12 L1,14 L0,14 L0,16 L-1,16 L-1,21 L-2,21 L-2,19 L-4,19 L-4,20 L-6,20 L-6,21 L-7,21 L-7,19 L-6,19 L-6,17 L-5,17 L-5,15 L-4,15 L-4,12 L-3,12 L-3,7 L-2,7 L-2,5 L-1,5 L-1,3 L0,3 Z " fill="#1F1418" transform="translate(559,153)"/>
<path d="M0,0 L1,0 L1,1 L2,1 L2,0 L4,0 L4,3 L5,3 L5,4 L6,4 L6,7 L4,7 L4,8 L3,8 L3,11 L1,11 L1,12 L-2,12 L-2,13 L-4,13 L-4,5 L-3,5 L-3,3 L-1,3 L-1,2 L0,2 Z " fill="#020101" transform="translate(187,188)"/>
<path d="M0,0 L1,0 L1,1 L2,1 L2,2 L6,2 L6,5 L7,5 L7,7 L6,7 L6,10 L4,10 L4,18 L5,18 L5,19 L6,19 L6,22 L4,22 L4,21 L5,21 L5,20 L3,20 L3,23 L1,23 L1,27 L0,27 L0,29 L-3,29 L-3,26 L-1,26 L-1,23 L0,23 L0,22 L1,22 L1,21 L2,21 L2,19 L3,19 L3,9 L2,9 L2,7 L1,7 L1,4 L0,4 Z " fill="#120809" transform="translate(335,144)"/>
<path d="M0,0 L2,0 L2,5 L3,5 L3,7 L4,7 L4,13 L5,13 L5,14 L6,14 L6,16 L9,16 L9,17 L10,17 L10,19 L9,19 L9,20 L10,20 L10,21 L14,21 L14,19 L15,19 L15,17 L14,17 L14,15 L16,15 L16,13 L17,13 L17,15 L18,15 L18,22 L6,22 L6,19 L5,19 L5,15 L4,15 L4,14 L3,14 L3,9 L2,9 L2,8 L1,8 L1,1 L0,1 Z " fill="#212024" transform="translate(577,188)"/>
<path d="M0,0 L20,0 L20,1 L21,1 L21,3 L25,3 L25,8 L8,8 L8,7 L12,7 L12,6 L23,6 L23,5 L20,5 L20,3 L19,3 L19,2 L16,2 L16,1 L1,1 L1,2 L0,2 L0,3 L-4,3 L-4,4 L-6,4 L-6,3 L-5,3 L-5,2 L-3,2 L-3,1 L0,1 Z " fill="#776767" transform="translate(161,137)"/>
<path d="M0,0 L1,0 L1,3 L2,3 L2,5 L3,5 L3,2 L5,2 L5,4 L29,4 L29,5 L7,5 L7,6 L5,6 L5,8 L4,8 L4,12 L3,12 L3,17 L2,17 L2,20 L1,20 L1,22 L0,22 L0,18 L1,18 L1,16 L2,16 L2,11 L3,11 L3,8 L2,8 L2,6 L0,6 L0,8 L-2,8 L-2,6 L-1,6 L-1,4 L0,4 Z " fill="#4F4345" transform="translate(548,183)"/>
<path d="M0,0 L2,0 L2,1 L4,1 L4,4 L6,4 L6,3 L7,3 L7,2 L8,2 L8,3 L9,3 L9,16 L8,16 L8,17 L6,17 L6,18 L0,18 L0,17 L2,17 L2,16 L3,16 L3,15 L5,15 L5,13 L6,13 L6,7 L5,7 L5,5 L3,5 L3,4 L2,4 L2,2 L1,2 L1,1 L0,1 Z " fill="#1B141B" transform="translate(174,187)"/>
<path d="M0,0 L2,0 L2,2 L3,2 L3,4 L2,4 L2,3 L-16,3 L-16,5 L-8,5 L-8,6 L-7,6 L-7,11 L-8,11 L-8,13 L-9,13 L-9,16 L-10,16 L-10,11 L-9,11 L-9,10 L-8,10 L-8,7 L-10,7 L-10,6 L-17,6 L-17,1 L0,1 Z " fill="#867875" transform="translate(403,137)"/>
<path d="M0,0 L25,0 L25,1 L31,1 L31,2 L16,2 L16,3 L14,3 L14,4 L13,4 L13,13 L12,13 L12,9 L11,9 L11,1 L0,1 Z " fill="#150303" transform="translate(227,140)"/>
<path d="M0,0 L19,0 L19,1 L20,1 L20,3 L19,3 L19,2 L17,2 L17,1 L1,1 L1,4 L7,4 L7,5 L10,5 L10,8 L9,8 L9,11 L8,11 L8,15 L7,15 L7,16 L6,16 L6,19 L5,19 L5,15 L6,15 L6,14 L7,14 L7,9 L8,9 L8,6 L0,6 L0,5 L-1,5 L-1,4 L-2,4 L-2,3 L-1,3 L-1,1 L0,1 Z " fill="#93898B" transform="translate(553,137)"/>
<path d="M0,0 L1,0 L1,8 L2,8 L2,9 L1,9 L1,10 L5,10 L5,12 L3,12 L3,18 L2,18 L2,20 L3,20 L3,22 L5,22 L5,23 L9,23 L9,24 L0,24 Z " fill="#100A0B" transform="translate(305,188)"/>
<path d="M0,0 L7,0 L7,3 L6,3 L6,4 L5,4 L5,6 L3,6 L3,7 L2,7 L2,8 L1,8 L1,9 L0,9 L0,4 L-1,4 L-1,6 L-2,6 L-2,7 L-4,7 L-4,9 L-6,9 L-6,7 L-5,7 L-5,5 L-4,5 L-4,4 L-2,4 L-2,3 L-1,3 L-1,1 L0,1 Z " fill="#4B3C42" transform="translate(508,137)"/>
<path d="M0,0 L2,0 L2,1 L1,1 L1,2 L0,2 L0,3 L-1,3 L-1,4 L-3,4 L-3,5 L-5,5 L-5,6 L-7,6 L-7,7 L-15,7 L-15,8 L-16,8 L-16,7 L-19,7 L-19,8 L-20,8 L-20,7 L-27,7 L-27,4 L-25,4 L-25,5 L-8,5 L-8,4 L-4,4 L-4,3 L-2,3 L-2,2 L-1,2 L-1,1 L0,1 Z " fill="#A78E94" transform="translate(345,172)"/>
<path d="M0,0 L1,0 L1,4 L0,4 L0,9 L-1,9 L-1,12 L2,12 L2,11 L3,11 L3,13 L2,13 L2,16 L1,16 L1,17 L0,17 L0,18 L-4,18 L-4,11 L-3,11 L-3,9 L-2,9 L-2,5 L-1,5 L-1,3 L0,3 Z " fill="#120E11" transform="translate(545,192)"/>
<path d="M0,0 L3,0 L3,7 L2,7 L2,12 L0,12 L0,13 L-1,13 L-1,15 L-2,15 L-2,12 L-3,12 L-3,7 L-2,7 L-2,5 L-1,5 L-1,4 L0,4 Z " fill="#060405" transform="translate(387,172)"/>
<path d="M0,0 L1,0 L1,3 L2,3 L2,6 L3,6 L3,9 L4,9 L4,12 L5,12 L5,14 L6,14 L6,17 L7,17 L7,20 L9,20 L9,25 L8,25 L8,22 L7,22 L7,21 L6,21 L6,18 L5,18 L5,16 L2,16 L2,14 L1,14 L1,11 L0,11 L0,7 L1,7 L1,4 L0,4 Z " fill="#3A2A2C" transform="translate(572,140)"/>
<path d="M0,0 L2,0 L2,2 L1,2 L1,3 L3,3 L3,4 L8,4 L8,5 L-9,5 L-9,4 L-11,4 L-11,7 L-12,7 L-12,1 L-11,1 L-11,2 L0,2 Z " fill="#291115" transform="translate(329,172)"/>
<path d="M0,0 L5,0 L5,1 L4,1 L4,2 L3,2 L3,3 L2,3 L2,6 L0,6 L0,7 L-1,7 L-1,8 L-2,8 L-2,9 L-4,9 L-4,8 L-6,8 L-6,5 L-5,5 L-5,3 L-4,3 L-4,1 L-2,1 L-2,2 L0,2 Z " fill="#070503" transform="translate(345,166)"/>
<path d="M0,0 L1,0 L1,5 L2,5 L2,6 L0,6 L0,5 L-2,5 L-2,6 L-3,6 L-3,11 L-4,11 L-4,20 L-3,20 L-3,22 L-4,22 L-4,21 L-5,21 L-5,17 L-6,17 L-6,8 L-5,8 L-5,5 L-4,5 L-4,4 L-3,4 L-3,2 L-2,2 L-2,1 L0,1 Z " fill="#221817" transform="translate(153,143)"/>
<path d="M0,0 L2,0 L2,2 L3,2 L3,5 L4,5 L4,9 L5,9 L5,14 L3,14 L3,8 L2,8 L2,7 L1,7 L1,6 L-1,6 L-1,9 L-2,9 L-2,10 L-3,10 L-3,8 L-2,8 L-2,5 L-3,5 L-3,1 L-2,1 L-2,3 L-1,3 L-1,1 L0,1 Z " fill="#342D30" transform="translate(409,151)"/>
<path d="M0,0 L3,0 L3,1 L4,1 L4,7 L3,7 L3,8 L2,8 L2,10 L-2,10 L-2,3 L-1,3 L-1,2 L0,2 Z " fill="#020101" transform="translate(402,140)"/>
<path d="M0,0 L29,0 L29,1 L8,1 L8,2 L5,2 L5,3 L8,3 L8,4 L1,4 L1,3 L0,3 Z " fill="#47302E" transform="translate(219,139)"/>
<path d="M0,0 L2,0 L2,2 L4,2 L4,3 L6,3 L6,2 L7,2 L7,4 L5,4 L5,6 L6,6 L6,8 L5,8 L5,10 L1,10 L1,9 L0,9 L0,8 L1,8 L1,6 L0,6 L0,5 L-2,5 L-2,3 L-1,3 L-1,4 L0,4 Z " fill="#010102" transform="translate(586,199)"/>
<path d="M0,0 L1,0 L1,2 L2,2 L2,3 L3,3 L3,4 L4,4 L4,5 L5,5 L5,7 L6,7 L6,8 L8,8 L8,9 L10,9 L10,10 L11,10 L11,12 L12,12 L12,13 L13,13 L13,14 L15,14 L15,15 L13,15 L13,16 L12,16 L12,15 L11,15 L11,14 L9,14 L9,15 L8,15 L8,13 L7,13 L7,11 L6,11 L6,9 L5,9 L5,10 L4,10 L4,6 L3,6 L3,5 L2,5 L2,4 L1,4 L1,3 L0,3 Z M3,10 L4,10 L4,11 L3,11 Z " fill="#373534" transform="translate(163,158)"/>
<path d="M0,0 L16,0 L16,1 L18,1 L18,2 L14,2 L14,3 L12,3 L12,2 L9,2 L9,4 L6,4 L6,3 L0,3 Z " fill="#281C1D" transform="translate(554,138)"/>
<path d="M0,0 L1,0 L1,1 L2,1 L2,3 L3,3 L3,6 L4,6 L4,15 L3,15 L3,16 L2,16 L2,18 L1,18 L1,20 L0,20 L0,21 L-2,21 L-2,20 L-1,20 L-1,15 L1,15 L1,11 L2,11 L2,5 L1,5 L1,2 L0,2 Z " fill="#70636C" transform="translate(191,185)"/>
<path d="M0,0 L1,0 L1,3 L2,3 L2,1 L3,1 L3,3 L10,3 L10,4 L15,4 L15,5 L12,5 L12,6 L2,6 L2,4 L0,4 L0,7 L-1,7 L-1,5 L-2,5 L-2,2 L0,2 Z " fill="#060102" transform="translate(551,181)"/>
<path d="M0,0 L20,0 L20,1 L10,1 L10,2 L11,2 L11,6 L10,6 L10,4 L9,4 L9,3 L0,3 Z " fill="#261416" transform="translate(458,139)"/>
<path d="M0,0 L1,0 L1,1 L2,1 L2,3 L3,3 L3,4 L4,4 L4,8 L5,8 L5,10 L6,10 L6,11 L7,11 L7,13 L8,13 L8,14 L9,14 L9,15 L10,15 L10,16 L11,16 L11,18 L12,18 L12,22 L11,22 L11,19 L10,19 L10,18 L9,18 L9,16 L8,16 L8,15 L7,15 L7,14 L6,14 L6,15 L5,15 L5,13 L6,13 L6,12 L5,12 L5,11 L4,11 L4,12 L3,12 L3,11 L2,11 L2,9 L3,9 L3,7 L2,7 L2,5 L1,5 L1,2 L0,2 Z " fill="#63565B" transform="translate(501,183)"/>
<path d="M0,0 L1,0 L1,2 L3,2 L3,3 L4,3 L4,7 L3,7 L3,9 L2,9 L2,12 L1,12 L1,10 L0,10 L0,8 L-1,8 L-1,9 L-2,9 L-2,11 L-3,11 L-3,7 L-2,7 L-2,5 L-1,5 L-1,3 L0,3 Z " fill="#241A1B" transform="translate(559,153)"/>
<path d="M0,0 L1,0 L1,1 L2,1 L2,5 L3,5 L3,8 L4,8 L4,12 L3,12 L3,16 L2,16 L2,20 L1,20 L1,21 L0,21 L0,22 L-1,22 L-1,24 L-2,24 L-2,21 L-1,21 L-1,20 L0,20 L0,19 L1,19 L1,2 L0,2 Z " fill="#847E80" transform="translate(349,148)"/>
<path d="M0,0 L1,0 L1,1 L2,1 L2,2 L3,2 L3,9 L2,9 L2,11 L1,11 L1,9 L0,9 L0,11 L-1,11 L-1,10 L-3,10 L-3,9 L-4,9 L-4,7 L-2,7 L-2,5 L-1,5 L-1,4 L0,4 Z " fill="#1A1518" transform="translate(406,143)"/>
<path d="M0,0 L3,0 L3,1 L4,1 L4,13 L3,13 L3,14 L0,14 L0,12 L-1,12 L-1,7 L-2,7 L-2,5 L0,5 L0,11 L2,11 L2,1 L0,1 Z " fill="#B19395" transform="translate(264,138)"/>
<path d="M0,0 L3,0 L3,1 L4,1 L4,2 L6,2 L6,3 L7,3 L7,4 L8,4 L8,5 L9,5 L9,8 L8,8 L8,10 L7,10 L7,8 L6,8 L6,9 L5,9 L5,12 L4,12 L4,8 L5,8 L5,6 L4,6 L4,7 L3,7 L3,5 L2,5 L2,2 L1,2 L1,1 L0,1 Z " fill="#171719" transform="translate(339,140)"/>
<path d="M0,0 L4,0 L4,2 L5,2 L5,4 L6,4 L6,7 L7,7 L7,8 L9,8 L9,11 L8,11 L8,16 L9,16 L9,18 L8,18 L8,17 L7,17 L7,15 L6,15 L6,9 L5,9 L5,6 L4,6 L4,3 L3,3 L3,2 L0,2 L0,3 L-1,3 L-1,1 L0,1 Z " fill="#382D2D" transform="translate(397,155)"/>
<path d="M0,0 L1,0 L1,2 L0,2 L0,8 L-1,8 L-1,9 L-2,9 L-2,12 L-3,12 L-3,13 L-4,13 L-4,14 L-10,14 L-10,9 L-8,9 L-8,11 L-3,11 L-3,8 L-2,8 L-2,6 L-1,6 L-1,1 L0,1 Z " fill="#595255" transform="translate(384,198)"/>
<path d="M0,0 L1,0 L1,2 L2,2 L2,3 L7,3 L7,4 L4,4 L4,5 L9,5 L9,6 L14,6 L14,3 L15,3 L15,7 L1,7 L1,4 L0,4 L0,2 L-1,2 L-1,1 L0,1 Z " fill="#33262D" transform="translate(500,204)"/>
<path d="M0,0 L2,0 L2,2 L1,2 L1,3 L-3,3 L-3,4 L-4,4 L-4,5 L-27,5 L-27,4 L-19,4 L-19,3 L-17,3 L-17,4 L-5,4 L-5,2 L-2,2 L-2,1 L0,1 Z " fill="#1B1621" transform="translate(185,208)"/>
<path d="M0,0 L1,0 L1,1 L2,1 L2,3 L5,3 L5,4 L6,4 L6,7 L8,7 L8,10 L6,10 L6,11 L5,11 L5,13 L4,13 L4,10 L3,10 L3,6 L2,6 L2,5 L1,5 L1,2 L0,2 Z " fill="#3F3636" transform="translate(411,190)"/>
<path d="M0,0 L1,0 L1,6 L0,6 L0,7 L1,7 L1,8 L-11,8 L-11,7 L-8,7 L-8,6 L-13,6 L-13,5 L0,5 Z " fill="#2B0B0E" transform="translate(574,179)"/>
<path d="M0,0 L1,0 L1,2 L2,2 L2,6 L3,6 L3,9 L4,9 L4,10 L5,10 L5,14 L6,14 L6,16 L7,16 L7,18 L5,18 L5,15 L3,15 L3,12 L2,12 L2,14 L1,14 L1,11 L2,11 L2,7 L1,7 L1,6 L0,6 L0,5 L-1,5 L-1,3 L0,3 Z " fill="#18181A" transform="translate(583,173)"/>
<path d="M0,0 L1,0 L1,2 L0,2 L0,3 L-1,3 L-1,4 L-2,4 L-2,5 L-3,5 L-3,6 L-4,6 L-4,7 L-5,7 L-5,9 L-6,9 L-6,10 L-7,10 L-7,12 L-8,12 L-8,13 L-9,13 L-9,14 L-10,14 L-10,15 L-11,15 L-11,16 L-12,16 L-12,20 L-13,20 L-13,15 L-12,15 L-12,14 L-11,14 L-11,13 L-10,13 L-10,12 L-9,12 L-9,11 L-8,11 L-8,9 L-7,9 L-7,5 L-4,5 L-4,2 L-3,2 L-3,3 L-2,3 L-2,2 L-1,2 L-1,1 L0,1 Z " fill="#746D77" transform="translate(505,150)"/>
<path d="M0,0 L12,0 L12,1 L8,1 L8,3 L6,3 L6,5 L2,5 L2,4 L1,4 L1,3 L0,3 Z " fill="#070516" transform="translate(153,207)"/>
<path d="M0,0 L2,0 L2,1 L1,1 L1,5 L-1,5 L-1,10 L-2,10 L-2,13 L-5,13 L-5,11 L-7,11 L-7,10 L-3,10 L-3,7 L-4,7 L-4,8 L-5,8 L-5,6 L-4,6 L-4,5 L-3,5 L-3,4 L-1,4 L-1,1 L0,1 Z " fill="#160E17" transform="translate(191,195)"/>
<path d="M0,0 L1,0 L1,1 L2,1 L2,4 L1,4 L1,7 L-1,7 L-1,8 L-2,8 L-2,11 L-4,11 L-4,16 L-6,16 L-6,14 L-5,14 L-5,9 L-3,9 L-3,7 L-2,7 L-2,3 L-1,3 L-1,2 L0,2 Z " fill="#3B3839" transform="translate(383,183)"/>
<path d="M0,0 L2,0 L2,5 L3,5 L3,7 L4,7 L4,13 L5,13 L5,14 L6,14 L6,17 L7,17 L7,21 L8,21 L8,22 L6,22 L6,19 L5,19 L5,15 L4,15 L4,14 L3,14 L3,9 L2,9 L2,8 L1,8 L1,1 L0,1 Z " fill="#87797D" transform="translate(577,188)"/>
<path d="M0,0 L1,0 L1,3 L2,3 L2,4 L1,4 L1,6 L2,6 L2,5 L3,5 L3,8 L2,8 L2,10 L1,10 L1,13 L-1,13 L-1,9 L-2,9 L-2,8 L-1,8 L-1,2 L0,2 Z " fill="#1A0E0E" transform="translate(392,156)"/>
<path d="M0,0 L2,0 L2,1 L3,1 L3,4 L4,4 L4,5 L5,5 L5,8 L6,8 L6,10 L7,10 L7,11 L8,11 L8,13 L7,13 L7,12 L6,12 L6,11 L4,11 L4,10 L3,10 L3,6 L1,6 L1,8 L0,8 L0,4 L2,4 L2,2 L1,2 L1,1 L0,1 Z " fill="#150E10" transform="translate(575,157)"/>
<path d="M0,0 L1,0 L1,2 L0,2 L0,9 L4,9 L4,8 L5,8 L5,7 L6,7 L6,4 L7,4 L7,9 L5,9 L5,10 L2,10 L2,11 L-2,11 L-2,6 L-1,6 L-1,1 L0,1 Z " fill="#938C91" transform="translate(541,201)"/>
<path d="M0,0 L2,0 L2,1 L3,1 L3,2 L4,2 L4,4 L5,4 L5,5 L7,5 L7,6 L8,6 L8,8 L9,8 L9,9 L10,9 L10,11 L9,11 L9,10 L6,10 L6,12 L5,12 L5,6 L4,6 L4,7 L3,7 L3,3 L2,3 L2,2 L1,2 L1,1 L0,1 Z " fill="#4B413E" transform="translate(181,174)"/>
<path d="M0,0 L5,0 L5,2 L3,2 L3,6 L2,6 L2,5 L-1,5 L-1,6 L-3,6 L-3,7 L-4,7 L-4,5 L-2,5 L-2,2 L-1,2 L-1,1 L0,1 Z " fill="#343039" transform="translate(491,158)"/>
<path d="M0,0 L1,0 L1,2 L3,2 L3,3 L1,3 L1,4 L-2,4 L-2,6 L-6,6 L-6,4 L-8,4 L-8,3 L-7,3 L-7,1 L-6,1 L-6,2 L0,2 Z " fill="#0C0910" transform="translate(182,206)"/>
<path d="M0,0 L1,0 L1,3 L0,3 L0,4 L1,4 L1,6 L-1,6 L-1,11 L-3,11 L-3,15 L-4,15 L-4,16 L-5,16 L-5,14 L-4,14 L-4,8 L-2,8 L-2,3 L-1,3 L-1,1 L0,1 Z " fill="#6C6567" transform="translate(390,161)"/>
<path d="M0,0 L3,0 L3,1 L4,1 L4,0 L6,0 L6,1 L5,1 L5,2 L6,2 L6,5 L5,5 L5,7 L3,7 L3,6 L2,6 L2,4 L1,4 L1,2 L0,2 Z " fill="#373536" transform="translate(488,188)"/>
<path d="M0,0 L5,0 L5,1 L6,1 L6,2 L7,2 L7,4 L8,4 L8,7 L9,7 L9,8 L7,8 L7,7 L6,7 L6,6 L5,6 L5,5 L4,5 L4,3 L2,3 L2,2 L1,2 L1,1 L0,1 Z " fill="#3D3031" transform="translate(165,179)"/>
<path d="M0,0 L1,0 L1,1 L2,1 L2,2 L3,2 L3,9 L4,9 L4,10 L3,10 L3,11 L1,11 L1,9 L0,9 Z " fill="#30282D" transform="translate(414,165)"/>
<path d="M0,0 L1,0 L1,1 L2,1 L2,4 L3,4 L3,5 L4,5 L4,6 L5,6 L5,7 L4,7 L4,8 L2,8 L2,7 L1,7 L1,8 L-1,8 L-1,5 L-2,5 L-2,3 L0,3 Z " fill="#0B090A" transform="translate(161,157)"/>
<path d="M0,0 L13,0 L13,3 L11,3 L11,2 L0,2 Z " fill="#100007" transform="translate(250,209)"/>
<path d="M0,0 L2,0 L2,5 L-3,5 L-3,4 L-8,4 L-8,3 L-5,3 L-5,2 L0,2 Z " fill="#130506" transform="translate(512,205)"/>
<path d="M0,0 L1,0 L1,2 L2,2 L2,3 L3,3 L3,7 L5,7 L5,8 L6,8 L6,12 L5,12 L5,11 L4,11 L4,9 L3,9 L3,11 L2,11 L2,4 L0,4 L0,5 L-1,5 L-1,3 L0,3 Z " fill="#393033" transform="translate(423,192)"/>
<path d="M0,0 L2,0 L2,2 L1,2 L1,3 L3,3 L3,4 L8,4 L8,5 L-9,5 L-9,4 L-1,4 L-1,3 L0,3 Z " fill="#3B2529" transform="translate(329,172)"/>
<path d="M0,0 L2,0 L2,3 L3,3 L3,6 L5,6 L5,7 L7,7 L7,10 L6,10 L6,11 L5,11 L5,13 L4,13 L4,9 L3,9 L3,7 L2,7 L2,4 L1,4 L1,1 L0,1 Z " fill="#15090A" transform="translate(567,158)"/>
<path d="M0,0 L1,0 L1,1 L2,1 L2,2 L3,2 L3,4 L4,4 L4,5 L5,5 L5,7 L4,7 L4,8 L3,8 L3,7 L1,7 L1,5 L0,5 L0,4 L-1,4 L-1,1 L0,1 Z " fill="#100505" transform="translate(507,197)"/>
<path d="M0,0 L2,0 L2,3 L3,3 L3,4 L5,4 L5,3 L6,3 L6,1 L7,1 L7,4 L8,4 L8,5 L7,5 L7,7 L6,7 L6,8 L5,8 L5,7 L3,7 L3,5 L2,5 L2,4 L1,4 L1,1 L0,1 Z " fill="#332F30" transform="translate(150,165)"/>
<path d="M0,0 L1,0 L1,2 L2,2 L2,8 L-2,8 L-2,6 L-1,6 L-1,4 L-2,4 L-2,2 L0,2 Z " fill="#111014" transform="translate(593,201)"/>
<path d="M0,0 L1,0 L1,6 L0,6 L0,8 L-1,8 L-1,7 L-5,7 L-5,5 L-3,5 L-3,3 L-1,3 L-1,2 L0,2 Z " fill="#0B040B" transform="translate(507,141)"/>
<path d="M0,0 L2,0 L2,2 L1,2 L1,3 L2,3 L2,4 L4,4 L4,5 L2,5 L2,6 L1,6 L1,7 L0,7 L0,9 L1,9 L1,10 L-1,10 L-1,8 L-2,8 L-2,6 L-1,6 L-1,4 L0,4 Z " fill="#140B0E" transform="translate(377,199)"/>
<path d="M0,0 L2,0 L2,1 L3,1 L3,0 L4,0 L4,3 L5,3 L5,4 L4,4 L4,5 L1,5 L1,4 L0,4 L0,5 L-1,5 L-1,6 L-2,6 L-2,4 L-1,4 L-1,3 L0,3 Z " fill="#000003" transform="translate(586,193)"/>
<path d="M0,0 L1,0 L1,2 L0,2 L0,4 L2,4 L2,6 L3,6 L3,7 L1,7 L1,5 L-2,5 L-2,6 L-3,6 L-3,5 L-5,5 L-5,2 L-4,2 L-4,1 L-3,1 L-3,3 L-1,3 L-1,1 L0,1 Z " fill="#110908" transform="translate(565,150)"/>
<path d="M0,0 L1,0 L1,5 L2,5 L2,6 L1,6 L1,8 L-1,8 L-1,9 L0,9 L0,11 L-1,11 L-1,13 L-3,13 L-3,10 L-2,10 L-2,7 L-1,7 L-1,5 L0,5 Z " fill="#231816" transform="translate(396,143)"/>
<path d="M0,0 L1,0 L1,1 L0,1 Z M-4,1 L0,1 L0,4 L1,4 L1,5 L-6,5 L-6,3 L-4,3 Z " fill="#00000A" transform="translate(165,207)"/>
<path d="M0,0 L1,0 L1,2 L2,2 L2,6 L1,6 L1,7 L-1,7 L-1,8 L-2,8 L-2,3 L-1,3 L-1,1 L0,1 Z " fill="#0B0203" transform="translate(558,161)"/>
<path d="M0,0 L6,0 L6,2 L9,2 L9,4 L8,4 L8,3 L1,3 L1,2 L0,2 Z " fill="#33171B" transform="translate(295,140)"/>
<path d="M0,0 L3,0 L3,1 L4,1 L4,3 L5,3 L5,6 L6,6 L6,8 L5,8 L5,7 L4,7 L4,4 L2,4 L2,5 L1,5 L1,2 L0,2 Z " fill="#130B0B" transform="translate(187,184)"/>
<path d="M0,0 L3,0 L3,3 L5,3 L5,5 L6,5 L6,6 L4,6 L4,4 L3,4 L3,6 L2,6 L2,3 L1,3 L1,5 L-1,5 L-1,4 L0,4 Z " fill="#110E10" transform="translate(550,178)"/>
<path d="M0,0 L5,0 L5,1 L4,1 L4,2 L3,2 L3,3 L2,3 L2,6 L0,6 L0,4 L-1,4 L-1,2 L0,2 Z " fill="#160E0D" transform="translate(345,166)"/>
<path d="M0,0 L2,0 L2,2 L1,2 L1,3 L-3,3 L-3,4 L-4,4 L-4,5 L-9,5 L-9,4 L-5,4 L-5,2 L-2,2 L-2,1 L0,1 Z " fill="#8A8191" transform="translate(185,208)"/>
<path d="M0,0 L3,0 L3,1 L6,1 L6,0 L10,0 L10,1 L8,1 L8,2 L4,2 L4,3 L0,3 Z " fill="#0E0406" transform="translate(468,208)"/>
<path d="M0,0 L1,0 L1,2 L2,2 L2,4 L3,4 L3,8 L2,8 L2,9 L0,9 L0,8 L-2,8 L-2,7 L0,7 L0,6 L1,6 L1,3 L0,3 Z " fill="#17171B" transform="translate(590,193)"/>
<path d="M0,0 L1,0 L1,2 L0,2 L0,6 L-1,6 L-1,8 L-4,8 L-4,5 L-2,5 L-2,2 L-1,2 L-1,1 L0,1 Z " fill="#4C393B" transform="translate(336,165)"/>
<path d="M0,0 L6,0 L6,1 L5,1 L5,3 L4,3 L4,2 L2,2 L2,3 L3,3 L3,4 L4,4 L4,5 L2,5 L2,4 L1,4 L1,3 L0,3 Z " fill="#1F1931" transform="translate(153,207)"/>
<path d="M0,0 L1,0 L1,2 L2,2 L2,3 L3,3 L3,5 L2,5 L2,7 L1,7 L1,5 L0,5 L0,4 L-2,4 L-2,1 L0,1 Z " fill="#1C191E" transform="translate(497,198)"/>
<path d="M0,0 L4,0 L4,2 L7,2 L7,3 L8,3 L8,5 L9,5 L9,6 L7,6 L7,5 L6,5 L6,4 L4,4 L4,3 L3,3 L3,2 L2,2 L2,1 L0,1 Z " fill="#261B1C" transform="translate(156,173)"/>
<path d="M0,0 L1,0 L1,1 L5,1 L5,3 L4,3 L4,4 L3,4 L3,5 L2,5 L2,3 L-1,3 L-1,4 L-2,4 L-2,2 L-1,2 L-1,1 L0,1 Z " fill="#1B131E" transform="translate(501,147)"/>
<path d="M0,0 L7,0 L7,1 L4,1 L4,2 L7,2 L7,3 L0,3 Z " fill="#2F1E1F" transform="translate(220,140)"/>
<path d="M0,0 L2,0 L2,1 L4,1 L4,4 L1,4 L1,5 L0,5 L0,3 L-2,3 L-2,1 L-1,1 L-1,2 L0,2 Z " fill="#050201" transform="translate(161,140)"/>
<path d="M0,0 L1,0 L1,1 L2,1 L2,7 L-3,7 L-3,6 L-1,6 L-1,4 L1,4 L1,2 L-1,2 L-1,1 L0,1 Z " fill="#11060A" transform="translate(427,203)"/>
<path d="M0,0 L4,0 L4,1 L9,1 L9,2 L6,2 L6,3 L1,3 L1,1 L0,1 Z " fill="#1B0101" transform="translate(557,184)"/>
<path d="M0,0 L1,0 L1,1 L2,1 L2,2 L4,2 L4,3 L3,3 L3,5 L2,5 L2,6 L3,6 L3,9 L2,9 L2,7 L1,7 L1,4 L0,4 Z " fill="#150B0C" transform="translate(335,144)"/>
<path d="M0,0 L6,0 L6,1 L8,1 L8,4 L6,4 L6,3 L5,3 L5,2 L2,2 L2,1 L0,1 Z " fill="#6C5E62" transform="translate(327,144)"/>
<path d="M0,0 L3,0 L3,1 L4,1 L4,2 L6,2 L6,3 L7,3 L7,4 L4,4 L4,5 L2,5 L2,2 L1,2 L1,1 L0,1 Z " fill="#2B2D2E" transform="translate(339,140)"/>
</svg>
