<?xml version="1.0" encoding="UTF-8"?>
<!DOCTYPE svg PUBLIC "-//W3C//DTD SVG 1.1//EN" "http://www.w3.org/Graphics/SVG/1.1/DTD/svg11.dtd">
<!-- Creator: CorelDRAW 2021 (64-Bit) -->
<svg xmlns="http://www.w3.org/2000/svg" xml:space="preserve" width="57mm" height="25mm" version="1.1" style="shape-rendering:geometricPrecision; text-rendering:geometricPrecision; image-rendering:optimizeQuality; fill-rule:evenodd; clip-rule:evenodd"
viewBox="0 0 5700 2500"
 xmlns:xlink="http://www.w3.org/1999/xlink"
 xmlns:xodm="http://www.corel.com/coreldraw/odm/2003">
 <defs>
  <style type="text/css">
   <![CDATA[
    .fil0 {fill:black;fill-rule:nonzero}
   ]]>
  </style>
 </defs>
 <g id="Layer_x0020_1">
  <metadata id="CorelCorpID_0Corel-Layer"/>
  <path class="fil0" d="M667.05 1432.51c0.15,79.13 -32.87,139.42 -99.05,180.82 -57.6,36.27 -132.43,54.46 -224.5,54.64 -61.11,0.12 -130.83,-10.06 -209.18,-30.58l-0.15 -79.98c69.75,23.96 137.76,35.84 204.02,35.71 47.33,-0.09 81.73,-6.59 103.22,-19.54 30.96,-18.13 46.37,-52.12 46.28,-102.01 -0.09,-43.9 -33.72,-85.53 -100.92,-125 -124.05,-72.88 -186.53,-109.74 -187.39,-110.6 -67.22,-52.36 -100.9,-115.94 -101.04,-190.79 -0.13,-64.51 26.89,-115.09 81.03,-151.77 54.14,-36.65 124.67,-55.09 211.59,-55.25 44.75,-0.09 108.44,6.68 191.09,20.28l0.13 69.68c-77.49,-15.34 -140.75,-22.96 -189.8,-22.87 -76.6,0.15 -114.82,35.06 -114.69,104.74 0.08,43.02 33.73,83.41 100.93,121.12 118.88,66.86 181.33,102.44 187.36,106.72 67.22,51.52 100.92,116.38 101.07,194.68zm892.36 220.22l-486.65 0.93 -1.27 -665.83c-0.08,-42.16 -6.38,-70.73 -18.88,-85.76 -12.51,-15.03 -36.4,-22.54 -71.69,-22.47 -9.46,-0.82 -14.21,-5.97 -14.22,-15.44 -0.02,-8.6 4.71,-13.33 14.17,-14.22l577 -1.11 0.28 147.1c-0.86,9.48 -5.57,14.2 -14.19,14.22 -9.45,0.02 -14.62,-4.69 -15.5,-14.16 -0.07,-35.28 -7.65,-59.35 -22.73,-72.2 -15.08,-12.9 -43.71,-19.27 -85.88,-19.19l-169.1 0.33c0,0 0.19,100.2 0.58,300.63l240.1 -0.46 0.11 55.5 -240.11 0.46 0.62 325.18 307.23 -0.59 0.13 67.08zm1025.04 -589.08c0.17,85.17 -35.43,148.48 -106.77,189.89 -56.72,32.81 -127.26,49.28 -211.6,49.44l-108.43 0.21 0.67 348.4 -179.42 0.34 -1.28 -665.84c-0.08,-42.15 -6.37,-70.73 -18.88,-85.75 -12.5,-15.03 -36.39,-22.54 -71.69,-22.47 -9.46,-0.82 -14.2,-5.97 -14.22,-15.45 -0.02,-8.59 4.71,-13.32 14.17,-14.22l366.59 -0.7c82.6,-0.16 154.94,15.62 216.95,47.34 75.81,39.43 113.77,95.69 113.91,168.81zm-176.82 6.79c-0.22,-111.84 -60.99,-167.61 -182.32,-167.38l-68.43 0.13 0.66 343.21 68.42 -0.13c121.34,-0.23 181.89,-58.84 181.67,-175.83zm1157.68 578.45l-187.18 0.36 -90.83 -248.84 -286.56 0.54 -88.6 249.19 -74.86 0.15 246.55 -674.05c6.84,-18.94 10.25,-34.86 10.23,-47.75 -0.07,-35.26 -30.66,-52.87 -91.74,-52.76 -9.48,-0.82 -14.21,-5.97 -14.23,-15.44 -0.02,-8.6 4.7,-13.32 14.17,-14.22l269.78 -0.52 293.27 803.34zm-297.47 -303.95l-123.28 -336.56 -123.27 337.03 246.55 -0.47zm1352.05 301.94l-218.15 0.41 -244.63 -346.65 0.66 347.12 -179.41 0.34 -1.28 -665.83c-0.08,-42.16 -6.37,-70.73 -18.88,-85.76 -12.51,-15.03 -36.41,-22.54 -71.69,-22.47 -9.47,-0.82 -14.2,-5.97 -14.22,-15.44 -0.02,-8.6 4.69,-13.33 14.17,-14.22l269.78 -0.52 0.72 376.8 349.09 -377.47 89.06 -0.17 -307.87 330.94 332.65 472.92zm978.43 -1.88l-187.17 0.36 -90.84 -248.85 -286.55 0.55 -88.61 249.19 -74.86 0.15 246.55 -674.05c6.85,-18.94 10.26,-34.86 10.23,-47.75 -0.07,-35.27 -30.65,-52.87 -91.74,-52.76 -9.48,-0.82 -14.21,-5.97 -14.23,-15.44 -0.01,-8.6 4.7,-13.33 14.17,-14.22l269.78 -0.52 293.27 803.34zm-297.47 -303.95l-123.28 -336.56 -123.27 337.03 246.55 -0.47z"/>
 </g>
</svg>
